# Blender v2.76 (sub 0) OBJ File: ''
# www.blender.org
mtllib test.mtl
o Plane
v -3.014840 -0.038894 3.058344
v 2.985160 -0.038894 3.058344
v -3.014840 -0.038894 -2.941656
v 2.985160 -0.038894 -2.941656
v -5.236465 4.540789 0.343572
v 0.828250 5.006614 3.446000
v -2.271289 1.484372 -4.993927
v 3.793428 1.950198 -1.891499
v 0.608494 -0.897184 5.980331
v 0.608494 1.102816 5.980331
v 0.608494 -0.897184 3.980331
v 0.608494 1.102816 3.980331
v 2.608494 -0.897184 5.980331
v 2.608494 1.102816 5.980331
v 2.608494 -0.897184 3.980331
v 2.608494 1.102816 3.980331
vn 0.000000 1.000000 0.000000
vn 0.150100 0.891600 -0.427200
vn -1.000000 0.000000 0.000000
vn 0.000000 0.000000 -1.000000
vn 1.000000 0.000000 0.000000
vn 0.000000 0.000000 1.000000
vn 0.000000 -1.000000 0.000000
usemtl None
s off
f 1//1 2//1 4//1 3//1
f 5//2 6//2 8//2 7//2
f 10//3 12//3 11//3 9//3
f 12//4 16//4 15//4 11//4
f 16//5 14//5 13//5 15//5
f 14//6 10//6 9//6 13//6
f 9//7 11//7 15//7 13//7
f 14//1 16//1 12//1 10//1
